<?xml version="1.0" encoding="utf-8"?>
<!-- Generator: Adobe Illustrator 16.0.0, SVG Export Plug-In . SVG Version: 6.00 Build 0)  -->
<!DOCTYPE svg PUBLIC "-//W3C//DTD SVG 1.1//EN" "http://www.w3.org/Graphics/SVG/1.1/DTD/svg11.dtd">
<svg version="1.1" id="Layer_5" xmlns="http://www.w3.org/2000/svg" xmlns:xlink="http://www.w3.org/1999/xlink" x="0px" y="0px"
	 width="128px" height="128px" viewBox="0 0 128 128" enable-background="new 0 0 128 128" xml:space="preserve">
<path fill="#565758" d="M127.975,117.174c0,5.965-4.836,10.801-10.801,10.801H10.774c-5.964,0-10.8-4.836-10.8-10.801v-106.4
	c0-5.964,4.835-10.8,10.8-10.8h106.399c5.965,0,10.801,4.835,10.801,10.8V117.174z"/>
<path fill="none" stroke="#000000" d="M90.6,41.32"/>
<rect x="5.174" y="5.06" fill="none" stroke="#202121" stroke-width="10.0879" stroke-linejoin="round" width="117.825" height="117.826"/>
<g>
	<path fill="#FFFFFF" d="M90.41,104.441V48.404l-22.559,56.037h-7.44L37.853,48.404v56.037H20.813V24.405h23.879l19.439,48.358
		L83.57,24.405h23.999v80.036H90.41z"/>
</g>
<polygon fill="#565758" points="66.845,104.635 49.763,104.635 17.501,23.747 34.583,23.747 "/>
<polygon fill="#DCE52E" points="76.787,104.635 59.844,104.635 27.844,24.402 44.787,24.402 "/>
</svg>
